<svg xmlns="http://www.w3.org/2000/svg" xmlns:xlink="http://www.w3.org/1999/xlink" version="1.1" x="0px" y="0px" viewBox="0 0 100 125" enable-background="new 0 0 100 100" xml:space="preserve"><rect x="5" y="5" fill="none" width="90" height="90.001"/><g><path d="M75.426,46.579h-4.42V31.427c0-11.443-9.423-20.753-21.006-20.753c-11.582,0-21.006,9.31-21.006,20.753v15.152h-4.419   c-2.56,0-4.642,2.082-4.642,4.642v33.464c0,2.56,2.082,4.643,4.642,4.643h50.851c2.559,0,4.641-2.083,4.641-4.643V51.221   C80.066,48.661,77.984,46.579,75.426,46.579z M75.631,85.643h-51.26c-0.424,0-0.768-0.343-0.768-0.767s0.344-0.768,0.768-0.768   h51.26c0.424,0,0.768,0.344,0.768,0.768S76.055,85.643,75.631,85.643z M55.471,78.622c0.034,0.291-0.057,0.582-0.251,0.801   s-0.473,0.344-0.765,0.344h-8.909c-0.292,0-0.57-0.125-0.765-0.344s-0.285-0.51-0.251-0.801l1.268-10.629   c-1.511-1.249-2.396-3.106-2.396-5.084c0-3.638,2.96-6.598,6.598-6.598c3.639,0,6.599,2.96,6.599,6.598   c0,1.978-0.886,3.835-2.396,5.084L55.471,78.622z M75.631,51.798h-51.26c-0.424,0-0.768-0.344-0.768-0.768s0.344-0.768,0.768-0.768   h8.293V31.427c0-9.42,7.777-17.084,17.336-17.084c9.561,0,17.337,7.664,17.337,17.084v18.836h8.294   c0.424,0,0.768,0.344,0.768,0.768S76.055,51.798,75.631,51.798z"/><path d="M50,58.357c-2.51,0-4.552,2.042-4.552,4.552c0,1.512,0.751,2.922,2.009,3.773c0.316,0.215,0.487,0.588,0.442,0.969   l-1.201,10.069h6.604l-1.201-10.069c-0.046-0.381,0.125-0.754,0.442-0.969c1.258-0.852,2.009-2.262,2.009-3.773   C54.553,60.399,52.511,58.357,50,58.357z"/><path d="M50,15.877c-8.713,0-15.802,6.975-15.802,15.549v18.836h31.604V31.427C65.803,22.853,58.714,15.877,50,15.877z    M61.521,46.579H38.479V31.427c0-6.213,5.168-11.268,11.521-11.268c6.354,0,11.521,5.055,11.521,11.268V46.579z"/></g><text x="0" y="115" fill="#000000" font-size="5px" font-weight="bold" font-family="'Helvetica Neue', Helvetica, Arial-Unicode, Arial, Sans-serif">Created by Tinashe Mugayi</text><text x="0" y="120" fill="#000000" font-size="5px" font-weight="bold" font-family="'Helvetica Neue', Helvetica, Arial-Unicode, Arial, Sans-serif">from the Noun Project</text></svg>