<svg xmlns="http://www.w3.org/2000/svg" xmlns:xlink="http://www.w3.org/1999/xlink" version="1.1" x="0px" y="0px" viewBox="0 0 100 125" enable-background="new 0 0 100 100" xml:space="preserve"><rect x="5" y="5" fill="none" width="90" height="90"/><g><path d="M50,79.586c3.623,0,6.57-2.947,6.57-6.57s-2.947-6.568-6.57-6.568c-3.622,0-6.569,2.945-6.569,6.568   S46.378,79.586,50,79.586z"/><path d="M75.523,51.563H38.432V26.361c0-6.239,5.189-11.314,11.568-11.314c6.379,0,11.568,5.075,11.568,11.314v16.072   c0,0.424,0.344,0.767,0.768,0.767h7.982c0.424,0,0.766-0.343,0.766-0.767V26.361c0-11.486-9.457-20.83-21.084-20.83   c-11.625,0-21.083,9.344-21.083,20.83v25.201h-4.439c-2.567,0-4.656,2.089-4.656,4.656v33.594c0,2.568,2.089,4.656,4.656,4.656   h51.046c2.568,0,4.656-2.088,4.656-4.656V56.219C80.18,53.651,78.092,51.563,75.523,51.563z M75.729,90.938H24.271   c-0.424,0-0.767-0.344-0.767-0.768s0.343-0.768,0.767-0.768h51.458c0.424,0,0.768,0.344,0.768,0.768S76.152,90.938,75.729,90.938z    M50,64.4c4.752,0,8.615,3.865,8.615,8.615S54.752,81.631,50,81.631c-4.75,0-8.615-3.865-8.615-8.615S45.25,64.4,50,64.4z    M41.885,64.264c2.217-2.057,5.099-3.189,8.115-3.189c3.018,0,5.9,1.133,8.115,3.189c0.311,0.289,0.33,0.773,0.041,1.084   c-0.15,0.164-0.357,0.246-0.563,0.246c-0.188,0-0.375-0.068-0.521-0.205c-1.932-1.793-4.443-2.779-7.072-2.779   s-5.139,0.986-7.071,2.779c-0.311,0.287-0.796,0.27-1.084-0.041S41.575,64.551,41.885,64.264z M58.115,81.768   c-2.217,2.057-5.098,3.189-8.115,3.189c-3.016,0-5.898-1.133-8.114-3.188c-0.311-0.289-0.329-0.775-0.041-1.086   s0.773-0.328,1.085-0.039c1.931,1.791,4.441,2.777,7.07,2.777s5.141-0.986,7.072-2.777c0.311-0.289,0.795-0.271,1.084,0.039   C58.443,80.994,58.426,81.48,58.115,81.768z M75.729,56.781H24.271c-0.424,0-0.767-0.344-0.767-0.768s0.343-0.768,0.767-0.768H32.6   V26.361c0-9.455,7.806-17.146,17.4-17.146c9.596,0,17.4,7.691,17.4,17.146V38.75c0,0.424-0.342,0.767-0.766,0.767   s-0.768-0.343-0.768-0.767V26.361c0-8.608-7.117-15.612-15.867-15.612c-8.749,0-15.866,7.004-15.866,15.612v28.885h41.594   c0.424,0,0.768,0.344,0.768,0.768S76.152,56.781,75.729,56.781z"/></g><text x="0" y="115" fill="#000000" font-size="5px" font-weight="bold" font-family="'Helvetica Neue', Helvetica, Arial-Unicode, Arial, Sans-serif">Created by Tinashe Mugayi</text><text x="0" y="120" fill="#000000" font-size="5px" font-weight="bold" font-family="'Helvetica Neue', Helvetica, Arial-Unicode, Arial, Sans-serif">from the Noun Project</text></svg>