<?xml version="1.0" encoding="utf-8"?>
<!-- Generator: Adobe Illustrator 16.0.0, SVG Export Plug-In . SVG Version: 6.00 Build 0)  -->
<!DOCTYPE svg PUBLIC "-//W3C//DTD SVG 1.1//EN" "http://www.w3.org/Graphics/SVG/1.1/DTD/svg11.dtd">
<svg version="1.1" id="Layer_1" xmlns="http://www.w3.org/2000/svg" xmlns:xlink="http://www.w3.org/1999/xlink" x="0px" y="0px"
	 width="656.323px" height="108.458px" viewBox="0 0 656.323 108.458" enable-background="new 0 0 656.323 108.458"
	 xml:space="preserve">
<g>
	<path d="M31.66,70.174l4.037-4.937l-4.342-3.155l-3.39,0.699c0.436,1.305,0.974,2.602,1.615,3.893
		C30.193,67.909,30.886,69.077,31.66,70.174z"/>
	<path d="M42.008,29.548c-0.218,0.108-0.414,0.465-0.628,0.577l0.404,0.758h22.379l1.169-1.659
		C57.465,25.777,49.69,25.733,42.008,29.548z"/>
	<path d="M51.415,76.735l-4.295-3.158c-2.046,2.504-3.646,4.431-4.741,5.77c3.022,1.445,6.036,2.338,9.036,2.682V76.735z"/>
	<path d="M50.564,69.424l3.63,2.639l19.079-13.862l-3.85-11.847c-2.32,2.836-4.792,5.858-7.449,9.106
		C57.452,60.995,53.653,65.644,50.564,69.424z"/>
	<path d="M83.115,26.405c0.2,1.896-0.318,3.607-1.556,5.133c-2.351,2.865-5.061,6.174-8.108,9.895l5.032,15.484l3.314,0.685
		c0.253-2.203,0.246-4.451-0.05-6.748c-0.402-3.333,0.906-5.751,3.924-7.25c2.148-1.067,4.307-1.026,6.472,0.12
		c2.098,1.126,3.291,2.897,3.583,5.317c0.406,3.151,0.461,6.24,0.175,9.27l12.297-8.987c-0.765-8.479-3.481-16.401-7.708-23.309
		l-18.193-2.244C82.73,24.556,83.002,25.433,83.115,26.405z"/>
	<polygon points="35.117,58.254 39.09,61.168 59.789,35.883 42.404,35.883 	"/>
	<path d="M37.482,33.607l-0.61-0.8c-4.094,3.237-7.042,7.473-8.812,12.733c-1.346,4.067-1.775,8.076-1.286,12.025l3.134-0.646
		L37.482,33.607z"/>
	<path d="M78.827,67.182c0.744-1.428,1.344-2.881,1.825-4.355l-3.844-0.745L56.415,76.734v5.314c4-0.333,6.74-1.295,9.994-2.911
		C71.759,76.481,76.049,72.497,78.827,67.182z"/>
	<path d="M31.13,5.163c-6.9,3.257-12.999,7.927-17.938,13.633l15.097-1.324L31.13,5.163z"/>
	<path d="M91.208,73.69c-4.201,7.957-10.324,13.934-18.372,17.93c-3.527,1.752-7.092,2.979-10.691,3.703l12.936,8.957
		c9.562-4.004,17.734-10.677,23.6-19.074l-5.318-16.215C92.748,70.576,92.033,72.143,91.208,73.69z"/>
	<path d="M41.226,106.892c0.132,0.03,0.266,0.059,0.396,0.091c0.87,0.207,1.742,0.393,2.622,0.557
		c0.255,0.046,0.512,0.093,0.769,0.135c0.908,0.158,1.821,0.289,2.736,0.398c0.157,0.02,0.31,0.043,0.467,0.059
		c2.195,0.242,4.409,0.348,6.618,0.323c0.218-0.004,0.43-0.013,0.646-0.019c0.892-0.021,1.784-0.062,2.675-0.126
		c0.235-0.019,0.471-0.034,0.708-0.056c0.963-0.082,1.924-0.189,2.882-0.32c0.118-0.019,0.236-0.029,0.353-0.047
		c1.095-0.16,2.185-0.354,3.268-0.58c0.132-0.027,0.262-0.062,0.394-0.092c0.906-0.197,1.805-0.418,2.698-0.662
		c0.12-0.032,0.239-0.069,0.358-0.102l-14.146-9.799L41.226,106.892z"/>
	<path d="M97.322,63.9l5.011,15.271c0.163-0.311,0.325-0.622,0.481-0.938c0.157-0.315,0.311-0.631,0.46-0.949
		c0.242-0.513,0.476-1.03,0.703-1.551c0.155-0.358,0.303-0.721,0.449-1.08c0.205-0.498,0.407-0.998,0.594-1.504
		c0.153-0.408,0.292-0.822,0.435-1.232c0.164-0.475,0.332-0.945,0.481-1.426c0.164-0.52,0.309-1.048,0.457-1.574
		c0.109-0.383,0.228-0.763,0.328-1.149c0.23-0.899,0.439-1.805,0.623-2.717c0.069-0.34,0.121-0.685,0.186-1.029
		c0.11-0.609,0.221-1.218,0.312-1.831c0.058-0.386,0.1-0.776,0.148-1.163c0.071-0.577,0.143-1.155,0.196-1.736
		c0.039-0.408,0.066-0.82,0.094-1.232c0.04-0.562,0.073-1.123,0.096-1.689c0.007-0.186,0.009-0.374,0.013-0.559L97.322,63.9z"/>
	<path d="M40.911,93.795c-10.949-3.682-18.99-10.691-24.122-21.023c-0.644-1.296-1.217-2.596-1.722-3.901L9.709,85.204
		c6.201,8.881,14.982,15.823,25.255,19.732l12.438-9.475C45.251,95.077,43.087,94.527,40.911,93.795z"/>
	<path d="M14.614,40.846c2.422-7.201,6.292-13.135,11.59-17.821L8.84,24.547c-4.758,7.246-7.827,15.689-8.647,24.776l12.325,9.009
		C11.933,52.593,12.623,46.765,14.614,40.846z"/>
	<path d="M0,55.811c0.005,0.186,0.007,0.373,0.014,0.558c0.023,0.562,0.055,1.126,0.096,1.686c0.029,0.414,0.056,0.828,0.093,1.24
		c0.055,0.578,0.125,1.152,0.196,1.727c0.05,0.391,0.093,0.782,0.15,1.17c0.089,0.605,0.2,1.211,0.31,1.813
		c0.062,0.351,0.118,0.704,0.188,1.052c0.173,0.856,0.371,1.703,0.585,2.549c0.12,0.467,0.255,0.929,0.387,1.393
		c0.141,0.495,0.275,0.993,0.43,1.483c0.157,0.498,0.332,0.99,0.501,1.48c0.137,0.393,0.27,0.784,0.414,1.172
		c0.195,0.521,0.403,1.035,0.612,1.549c0.141,0.345,0.282,0.689,0.43,1.031c0.232,0.535,0.473,1.064,0.721,1.591
		c0.143,0.304,0.289,0.603,0.437,0.903c0.161,0.324,0.328,0.643,0.496,0.965l5.01-15.272L0,55.811z"/>
	<path d="M35.639,16.723c7.452-3.701,15.277-5.05,23.47-4.046c6.764,0.804,12.871,3.074,18.34,6.771L74.44,3.934
		C68.181,1.405,61.35,0,54.195,0c-5.944,0-11.662,0.976-17.017,2.75L33.72,17.731C34.346,17.383,34.986,17.047,35.639,16.723z"/>
	<path d="M96.307,20.109c-4.375-5.388-9.757-9.919-15.862-13.312l2.258,11.635L96.307,20.109z"/>
</g>
<g>
	<path d="M126.983,74.366l-13.821-32.33c-0.141-0.329-0.118-0.623,0.071-0.881c0.188-0.305,0.458-0.458,0.811-0.458
		c0.47,0,0.788,0.188,0.952,0.564l12.445,29.016c0.188,0.447,0.435,1.035,0.741,1.763c0.234,0.635,0.411,1.058,0.529,1.27
		c0.329,0.682,0.775,1.034,1.34,1.058c0.517,0.023,0.963-0.329,1.339-1.058c0.141-0.282,0.329-0.729,0.564-1.34
		c0.353-0.822,0.599-1.397,0.74-1.728l12.375-28.946c0.188-0.399,0.481-0.599,0.881-0.599c0.399,0,0.705,0.153,0.917,0.458
		c0.188,0.282,0.212,0.576,0.071,0.881l-13.821,32.295c-0.564,1.41-1.586,2.115-3.067,2.115
		C128.57,76.446,127.547,75.752,126.983,74.366z"/>
	<path d="M155.576,71.192c-3.502-3.478-5.253-7.686-5.253-12.621s1.751-9.143,5.253-12.622c3.478-3.502,7.686-5.253,12.622-5.253
		c3.479,0,6.687,0.952,9.625,2.856c2.938,1.88,5.136,4.407,6.593,7.58c0.117,0.26,0.141,0.494,0.07,0.705
		c-0.094,0.282-0.247,0.471-0.458,0.564c-3.244,1.434-7.827,3.49-13.75,6.17c-6.018,2.727-10.577,4.783-13.68,6.17
		c-0.33,0.141-0.752,0.341-1.269,0.6c-0.541,0.234-0.976,0.423-1.305,0.564c0.423,0.939,0.975,1.797,1.657,2.573
		c3.196,4.043,7.368,6.063,12.516,6.063c3.361,0,6.417-0.986,9.167-2.961c2.75-1.951,4.689-4.514,5.817-7.686
		c0.141-0.447,0.47-0.67,0.987-0.67c0.329,0,0.576,0.129,0.741,0.387c0.211,0.283,0.258,0.588,0.141,0.918
		c-1.246,3.549-3.42,6.428-6.522,8.637c-3.103,2.187-6.546,3.279-10.331,3.279C163.262,76.446,159.054,74.696,155.576,71.192z
		 M156.986,47.465c-3.126,3.102-4.689,6.84-4.689,11.211c0,0.775,0.047,1.54,0.141,2.292c0.141,1.058,0.411,2.104,0.811,3.138
		c3.196-1.457,8.026-3.643,14.491-6.558c6.369-2.867,11.199-5.042,14.49-6.522c-0.611-0.987-1.246-1.845-1.904-2.574
		c-3.197-3.76-7.24-5.641-12.128-5.641C163.826,42.811,160.089,44.362,156.986,47.465z"/>
	<path d="M192.49,76.446c-0.611,0-0.917-0.317-0.917-0.952V53.565c0.023-3.597,1.281-6.64,3.772-9.132
		c2.468-2.491,5.488-3.737,9.061-3.737h2.151c0.634,0,0.952,0.33,0.952,0.987c0,0.705-0.317,1.058-0.952,1.058h-2.151
		c-3.009,0-5.559,1.035-7.65,3.103c-2.092,2.093-3.162,4.666-3.208,7.722v21.929c0,0.635-0.317,0.952-0.952,0.952H192.49z"/>
	<path d="M218.086,89.667c-2.468-1.434-4.325-3.385-5.57-5.852c-0.141-0.26-0.165-0.506-0.071-0.74
		c0.141-0.307,0.305-0.506,0.494-0.6l0.141-0.035l0.106-0.035c0.117-0.024,0.223-0.036,0.317-0.036c0.376,0,0.646,0.165,0.811,0.493
		c1.128,2.116,2.773,3.797,4.936,5.043c2.162,1.245,4.489,1.868,6.98,1.868c3.361,0,6.276-1.223,8.744-3.667
		c2.468-2.468,3.702-5.383,3.702-8.744v-8.884c-1.082,1.856-2.375,3.326-3.878,4.407c-2.562,1.881-5.418,2.82-8.567,2.82
		c-3.972,0-7.368-1.41-10.189-4.23c-2.82-2.82-4.23-6.229-4.23-10.225V41.718c0-0.635,0.317-0.952,0.952-0.952
		c0.682,0,1.022,0.317,1.022,0.952V61.25c0,3.432,1.222,6.369,3.667,8.814c2.421,2.42,5.347,3.631,8.779,3.631
		s6.358-1.211,8.779-3.631c2.444-2.421,3.667-5.336,3.667-8.744V41.718c0-0.635,0.317-0.952,0.952-0.952
		c0.706,0,1.058,0.317,1.058,0.952v35.644c0,3.855-1.446,7.229-4.337,10.119s-6.264,4.336-10.119,4.336
		C223.245,91.817,220.53,91.1,218.086,89.667z"/>
	<path d="M256.621,76.446c-2.256,0-4.184-0.799-5.782-2.397c-1.599-1.574-2.397-3.49-2.397-5.747V26.382
		c0-0.635,0.329-0.952,0.987-0.952c0.658,0,0.987,0.317,0.987,0.952v14.314h9.167c0.635,0,0.952,0.33,0.952,0.987
		c0,0.705-0.317,1.058-0.952,1.058h-9.167v25.561c0,1.692,0.611,3.139,1.833,4.337c1.199,1.198,2.656,1.798,4.372,1.798h2.961
		c0.635,0,0.952,0.33,0.952,0.987c0,0.683-0.317,1.022-0.952,1.022H256.621z"/>
	<path d="M293.464,76.446c-0.611,0-0.917-0.317-0.917-0.952V55.151c0-3.432-1.222-6.357-3.667-8.779
		c-2.421-2.42-5.348-3.631-8.779-3.631c-3.432,0-6.37,1.211-8.814,3.631c-2.445,2.421-3.667,5.347-3.667,8.779v20.343
		c0,0.635-0.306,0.952-0.917,0.952c-0.705,0-1.058-0.317-1.058-0.952V26.382c0-0.635,0.329-0.952,0.987-0.952
		c0.658,0,0.987,0.317,0.987,0.952v21.612c1.104-1.88,2.409-3.372,3.914-4.478c2.539-1.88,5.394-2.82,8.567-2.82
		c3.972,0,7.369,1.41,10.189,4.231c2.82,2.82,4.231,6.228,4.231,10.224v20.343c0,0.635-0.317,0.952-0.952,0.952H293.464z"/>
	<path d="M302.561,28.074c-0.306-0.305-0.458-0.669-0.458-1.093c0-0.423,0.152-0.787,0.458-1.093
		c0.306-0.305,0.682-0.458,1.128-0.458c0.424,0,0.776,0.153,1.058,0.458c0.306,0.306,0.459,0.67,0.459,1.093
		c0,0.423-0.153,0.788-0.459,1.093c-0.306,0.306-0.658,0.458-1.058,0.458C303.242,28.532,302.866,28.38,302.561,28.074z
		 M303.583,76.446c-0.635,0-0.952-0.317-0.952-0.952V41.683c0-0.658,0.317-0.987,0.952-0.987c0.682,0,1.022,0.33,1.022,0.987v33.811
		c0,0.635-0.306,0.952-0.917,0.952H303.583z"/>
	<path d="M340.531,76.446c-0.611,0-0.916-0.317-0.916-0.952V55.151c0-3.432-1.223-6.357-3.667-8.779
		c-2.421-2.42-5.348-3.631-8.779-3.631s-6.369,1.211-8.813,3.631c-2.445,2.421-3.667,5.347-3.667,8.779v20.343
		c0,0.635-0.306,0.952-0.917,0.952c-0.705,0-1.058-0.317-1.058-0.952V55.151c0-3.996,1.41-7.404,4.231-10.224
		c2.843-2.821,6.252-4.231,10.224-4.231c3.973,0,7.369,1.41,10.189,4.231c2.82,2.82,4.23,6.228,4.23,10.224v20.343
		c0,0.635-0.306,0.952-0.916,0.952H340.531z"/>
	<path d="M349.628,83.638c-0.165-0.259-0.2-0.553-0.105-0.882c0.117-0.259,0.317-0.436,0.6-0.528
		c0.188-0.071,0.328-0.106,0.423-0.106c0.329,0,0.61,0.164,0.846,0.494c3.079,4.748,7.769,7.121,14.067,7.121
		c3.925,0,7.51-1.504,10.753-4.512c3.432-3.197,5.147-6.97,5.147-11.318v-7.016c-1.081,1.998-2.433,3.702-4.054,5.112
		c-3.408,2.985-7.357,4.478-11.847,4.478c-4.936,0-9.144-1.75-12.622-5.253c-3.502-3.502-5.253-7.709-5.253-12.622
		c0-4.936,1.751-9.154,5.253-12.657c3.479-3.479,7.687-5.218,12.622-5.218c4.889,0,9.084,1.74,12.587,5.218
		c3.479,3.479,5.241,7.674,5.288,12.586v15.371c0,4.842-1.951,9.084-5.853,12.729c-3.666,3.432-7.674,5.146-12.022,5.146
		C358.407,91.782,353.13,89.067,349.628,83.638z M354.247,47.395c-3.127,3.102-4.689,6.84-4.689,11.211
		c0,4.372,1.562,8.109,4.689,11.211c3.103,3.104,6.839,4.654,11.211,4.654s8.109-1.551,11.212-4.654
		c3.126-3.102,4.688-6.839,4.688-11.211V58.36l-0.07-0.248c-0.117-4.254-1.728-7.873-4.83-10.858c-3.079-3.008-6.746-4.513-11-4.513
		C361.086,42.741,357.35,44.292,354.247,47.395z"/>
	<path d="M399.374,58.817V72.18c0,1.198-0.423,2.197-1.269,2.996c-0.847,0.847-1.846,1.27-2.997,1.27h-0.105
		c-1.152,0-2.151-0.423-2.997-1.27c-0.846-0.799-1.27-1.798-1.27-2.996V40.096c0-5.17,1.834-9.589,5.5-13.256
		c3.667-3.643,8.074-5.464,13.222-5.464c5.17,0,9.577,1.821,13.221,5.464c3.667,3.667,5.5,8.086,5.5,13.256
		c0,5.147-1.833,9.555-5.5,13.221c-3.644,3.668-8.051,5.5-13.221,5.5H399.374z M399.374,50.18h10.084
		c2.797,0,5.183-0.988,7.157-2.962c1.95-1.951,2.926-4.325,2.926-7.122c0-2.796-0.976-5.183-2.926-7.157
		c-1.975-1.975-4.36-2.961-7.157-2.961c-2.798,0-5.183,0.987-7.157,2.961c-1.951,1.974-2.927,4.36-2.927,7.157V50.18z"/>
	<path d="M451.729,35.831c1.176,0,2.187,0.423,3.032,1.269c0.822,0.846,1.234,1.857,1.234,3.032v0.07
		c0,1.176-0.412,2.174-1.234,2.997c-0.846,0.846-1.856,1.269-3.032,1.269h-2.009c-1.928,0-3.562,0.67-4.901,2.01
		c-1.316,1.339-1.986,2.974-2.01,4.9V72.18c0,1.198-0.423,2.197-1.269,2.996c-0.847,0.847-1.846,1.27-2.997,1.27h-0.105
		c-1.152,0-2.151-0.423-2.997-1.27c-0.847-0.799-1.27-1.798-1.27-2.996V51.378c0.047-4.301,1.563-7.968,4.548-11
		c3.032-3.032,6.699-4.548,11.001-4.548H451.729z"/>
	<path d="M497.563,47.677c0.282,0.587,0.423,1.187,0.423,1.798c0,0.493-0.094,0.986-0.282,1.48
		c-0.399,1.105-1.151,1.904-2.256,2.397c-3.291,1.48-7.615,3.432-12.975,5.853c-6.652,3.009-10.554,4.783-11.705,5.324
		c1.786,2.256,4.571,3.384,8.355,3.384c2.515,0,4.795-0.74,6.84-2.222c1.998-1.457,3.396-3.336,4.195-5.641
		c0.682-1.927,2.045-2.891,4.09-2.891c1.457,0,2.621,0.611,3.49,1.833c0.541,0.753,0.812,1.54,0.812,2.362
		c0,0.494-0.095,1-0.282,1.516c-1.387,4.02-3.82,7.264-7.298,9.731c-3.526,2.562-7.475,3.843-11.847,3.843
		c-5.594,0-10.377-1.986-14.349-5.959c-3.973-3.971-5.959-8.754-5.959-14.349c0-5.594,1.986-10.377,5.959-14.35
		c3.972-3.972,8.755-5.958,14.349-5.958c4.043,0,7.733,1.105,11.07,3.314C493.509,41.307,495.965,44.151,497.563,47.677z
		 M479.124,44.539c-3.243,0-6.006,1.141-8.285,3.42c-2.256,2.28-3.385,5.042-3.385,8.285v0.247l19.709-8.85
		C485.423,45.573,482.743,44.539,479.124,44.539z"/>
	<path d="M513.534,72.18c0,1.198-0.423,2.197-1.269,2.996c-0.847,0.847-1.846,1.27-2.997,1.27h-0.105
		c-1.152,0-2.151-0.423-2.997-1.27c-0.847-0.799-1.27-1.798-1.27-2.996V52.789c0-4.653,1.657-8.649,4.972-11.987
		c3.313-3.314,7.31-4.971,11.987-4.971c5.594,0,9.812,1.857,12.656,5.57c2.821-3.713,7.028-5.57,12.622-5.57
		c4.677,0,8.673,1.657,11.987,4.971c3.314,3.337,4.972,7.333,4.972,11.987V72.18c0,1.176-0.412,2.174-1.234,2.996
		c-0.847,0.847-1.857,1.27-3.032,1.27h-0.07c-1.199,0-2.198-0.423-2.997-1.27c-0.846-0.799-1.27-1.798-1.27-2.996V52.789
		c0-2.304-0.811-4.266-2.433-5.888c-1.621-1.622-3.596-2.433-5.923-2.433c-2.304,0-4.266,0.811-5.888,2.433
		c-1.622,1.622-2.433,3.584-2.433,5.888V72.18c0,1.198-0.423,2.197-1.27,2.996c-0.799,0.847-1.798,1.27-2.996,1.27h-0.071
		c-1.175,0-2.186-0.423-3.031-1.27c-0.847-0.799-1.27-1.798-1.27-2.996V52.789c0-2.304-0.812-4.266-2.433-5.888
		c-1.622-1.622-3.585-2.433-5.888-2.433c-2.304,0-4.267,0.811-5.889,2.433c-1.621,1.622-2.433,3.584-2.433,5.888V72.18z"/>
	<path d="M576.785,31.247c-1.363,0-2.527-0.481-3.49-1.445c-0.965-0.964-1.446-2.127-1.446-3.491c0-1.34,0.481-2.491,1.446-3.455
		c0.963-0.963,2.127-1.445,3.49-1.445c1.34,0,2.491,0.482,3.455,1.445c0.987,0.94,1.48,2.092,1.48,3.455
		c0,1.387-0.493,2.551-1.48,3.491C579.276,30.766,578.125,31.247,576.785,31.247z M576.82,35.831c1.198,0,2.197,0.423,2.996,1.269
		c0.847,0.846,1.27,1.857,1.27,3.032V72.18c0,1.198-0.423,2.197-1.27,2.996c-0.799,0.847-1.798,1.27-2.996,1.27h-0.07
		c-1.176,0-2.187-0.423-3.032-1.27c-0.847-0.799-1.27-1.798-1.27-2.996V40.132c0-1.175,0.423-2.186,1.27-3.032
		c0.846-0.846,1.856-1.269,3.032-1.269H576.82z"/>
	<path d="M627.166,47.677c0.282,0.587,0.423,1.187,0.423,1.798c0,0.493-0.094,0.986-0.282,1.48
		c-0.399,1.105-1.151,1.904-2.256,2.397c-3.291,1.48-7.615,3.432-12.975,5.853c-6.652,3.009-10.554,4.783-11.705,5.324
		c1.786,2.256,4.571,3.384,8.355,3.384c2.515,0,4.795-0.74,6.84-2.222c1.998-1.457,3.396-3.336,4.195-5.641
		c0.682-1.927,2.045-2.891,4.09-2.891c1.457,0,2.621,0.611,3.49,1.833c0.541,0.753,0.812,1.54,0.812,2.362
		c0,0.494-0.095,1-0.282,1.516c-1.387,4.02-3.82,7.264-7.298,9.731c-3.526,2.562-7.475,3.843-11.847,3.843
		c-5.594,0-10.377-1.986-14.349-5.959c-3.973-3.971-5.959-8.754-5.959-14.349c0-5.594,1.986-10.377,5.959-14.35
		c3.972-3.972,8.755-5.958,14.349-5.958c4.043,0,7.733,1.105,11.07,3.314C623.111,41.307,625.567,44.151,627.166,47.677z
		 M608.727,44.539c-3.243,0-6.006,1.141-8.285,3.42c-2.256,2.28-3.385,5.042-3.385,8.285v0.247l19.709-8.85
		C615.025,45.573,612.346,44.539,608.727,44.539z"/>
	<path d="M652.057,35.831c1.176,0,2.187,0.423,3.032,1.269c0.822,0.846,1.234,1.857,1.234,3.032v0.07
		c0,1.176-0.412,2.174-1.234,2.997c-0.846,0.846-1.856,1.269-3.032,1.269h-2.009c-1.928,0-3.562,0.67-4.901,2.01
		c-1.316,1.339-1.986,2.974-2.01,4.9V72.18c0,1.198-0.423,2.197-1.269,2.996c-0.847,0.847-1.846,1.27-2.997,1.27h-0.105
		c-1.152,0-2.151-0.423-2.997-1.27c-0.847-0.799-1.27-1.798-1.27-2.996V51.378c0.047-4.301,1.563-7.968,4.548-11
		c3.032-3.032,6.699-4.548,11.001-4.548H652.057z"/>
</g>
</svg>
